<?xml version="1.0" encoding="UTF-8" standalone="no"?>
<!-- Created with Inkscape (http://www.inkscape.org/) -->

<svg
   width="210mm"
   height="297mm"
   viewBox="0 0 210 297"
   version="1.1"
   id="svg5"
   inkscape:version="1.2.2 (732a01da63, 2022-12-09)"
   sodipodi:docname="logo2.svg"
   xmlns:inkscape="http://www.inkscape.org/namespaces/inkscape"
   xmlns:sodipodi="http://sodipodi.sourceforge.net/DTD/sodipodi-0.dtd"
   xmlns="http://www.w3.org/2000/svg"
   xmlns:svg="http://www.w3.org/2000/svg">
  <sodipodi:namedview
     id="namedview7"
     pagecolor="#ffffff"
     bordercolor="#000000"
     borderopacity="0.25"
     inkscape:showpageshadow="2"
     inkscape:pageopacity="0.0"
     inkscape:pagecheckerboard="0"
     inkscape:deskcolor="#d1d1d1"
     inkscape:document-units="mm"
     showgrid="false"
     inkscape:zoom="0.66142459"
     inkscape:cx="-3.0237763"
     inkscape:cy="368.90071"
     inkscape:window-width="1366"
     inkscape:window-height="705"
     inkscape:window-x="-8"
     inkscape:window-y="-8"
     inkscape:window-maximized="1"
     inkscape:current-layer="layer1" />
  <defs
     id="defs2">
    <rect
       x="229.807"
       y="436.93568"
       width="211.66434"
       height="173.86714"
       id="rect1456" />
    <rect
       x="456.59022"
       y="193.52168"
       width="72.570631"
       height="195.03357"
       id="rect1450" />
    <rect
       x="58.963638"
       y="192.0098"
       width="237.36644"
       height="267.6042"
       id="rect1394" />
    <rect
       x="284.37165"
       y="429.76468"
       width="248.0234"
       height="237.33273"
       id="rect483" />
    <rect
       x="361.34443"
       y="74.834646"
       width="226.64207"
       height="218.08954"
       id="rect477" />
    <rect
       x="62.005849"
       y="85.525309"
       width="173.18875"
       height="205.26074"
       id="rect471" />
    <rect
       x="532.39505"
       y="594.4009"
       width="53.453318"
       height="96.215973"
       id="rect465" />
    <rect
       x="196.70821"
       y="600.8153"
       width="203.12261"
       height="222.3658"
       id="rect332" />
  </defs>
  <g
     inkscape:label="Слой 1"
     inkscape:groupmode="layer"
     id="layer1">
    <g
       aria-label="G"
       transform="matrix(1.6054568,0,0,1.579751,-543.16589,-85.450106)"
       id="text475"
       style="font-size:85.3333px;white-space:pre;shape-inside:url(#rect477)" />
    <g
       aria-label="W"
       transform="matrix(0.67972371,0,0,0.46506544,-107.83998,-129.49255)"
       id="text481"
       style="font-size:85.3333px;white-space:pre;shape-inside:url(#rect483)" />
    <path
       id="text1392"
       style="font-size:85.3333px;white-space:pre;shape-inside:url(#rect1394);fill:#ffff00;stroke-width:0.903;stroke:#000000;stroke-opacity:1;stroke-dasharray:none;stroke-linejoin:round;stroke-linecap:round;paint-order:normal"
       d="m 121.72667,36.536561 c -8.37761,0.136939 -16.82094,2.313481 -23.878209,6.915866 -4.516261,2.922049 -8.486876,6.682707 -11.686238,11.004056 -12.428386,0 -24.856771,0 -37.285157,0 0,19.02539 0,38.050778 0,57.076167 12.403646,0 24.807292,0 37.210938,0 5.003882,6.66821 12.211618,11.6606 20.258106,13.87818 7.72962,2.16925 15.93595,2.0908 23.81415,0.83471 6.5996,-1.11335 13.00338,-3.38333 18.8125,-6.71289 0,-13.37044 0,-26.740879 0,-40.111323 -1.67643,0 -3.35286,0 -5.02929,0 2.40858,-8.528722 4.81934,-17.05683 7.22656,-25.585938 -1.46745,0 -2.9349,0 -4.40234,0 -1.8042,6.79258 -3.60523,13.586003 -5.40821,20.378906 -1.86356,-6.79307 -3.7301,-13.585327 -5.59179,-20.378906 -1.23959,0 -2.47917,0 -3.71875,0 -1.96095,6.813652 -3.92728,13.626214 -5.88868,20.439453 -1.88152,-6.814825 -3.77777,-13.625842 -5.66406,-20.439453 -1.48697,0 -2.97395,0 -4.46093,0 2.49938,8.528253 4.99587,17.057357 7.49414,25.585938 -1.57878,0 -3.15755,0 -4.73633,0 0,3.414064 0,6.828124 0,10.242184 6.32357,0 12.64713,0 18.9707,0 0,7.81315 0,15.626309 0,23.439459 -5.46141,2.9162 -11.76007,3.93786 -17.8605,3.83113 -5.43756,-0.0795 -10.98783,-1.24227 -15.71176,-3.96004 -2.93677,-1.67777 -5.544863,-3.93134 -7.628659,-6.49428 C 92.414135,101.43905 90.240367,94.993051 89.518813,88.631371 88.71737,81.302447 89.13215,73.738373 91.894444,66.795902 95.330959,58.113405 102.64335,50.853483 111.67369,48.181887 c 2.67252,-0.805183 5.53928,-1.25915 8.35376,-1.377748 8.85022,-0.309834 17.94388,1.424531 25.58947,6.03852 0.53795,0.323957 1.06922,0.659322 1.60389,0.988824 0,-4.175781 0,-8.351563 0,-12.527344 -7.89744,-3.807512 -16.81517,-4.882091 -25.49414,-4.767578 z m 17.03125,42.884766 c -3.35482,0 -6.70963,0 -10.06445,0 1.68099,-5.945313 3.36198,-11.890625 5.04297,-17.835938 1.67382,5.945313 3.34765,11.890625 5.02148,17.835938 z M 81.652457,62.13617 c -2.048445,4.512854 -3.289346,9.37136 -3.830078,14.291016 -6.8125,0 -13.625,0 -20.4375,0 0,-4.763672 0,-9.527344 0,-14.291016 8.089192,0 16.178385,0 24.267578,0 z m -4.171875,21.970701 c 0.109176,6.7519 1.276448,13.56287 4.064453,19.746099 -8.053385,0 -16.106771,0 -24.160156,0 0,-6.582029 0,-13.164069 0,-19.746099 6.698567,0 13.397135,0 20.095703,0 z"
       inkscape:export-filename="text1392.png"
       inkscape:export-xdpi="96"
       inkscape:export-ydpi="96" />
    <text
       xml:space="preserve"
       style="font-style:normal;font-variant:normal;font-weight:normal;font-stretch:normal;font-size:23.2608px;font-family:'Segoe UI Historic';-inkscape-font-specification:'Segoe UI Historic';fill:#0086ff;fill-opacity:1;stroke:#000000;stroke-width:0.930316;stroke-linecap:round;stroke-linejoin:round;stroke-dasharray:none;stroke-opacity:1;paint-order:normal"
       x="54.099236"
       y="112.80719"
       id="text1555"
       transform="scale(1.031531,0.9694328)"><tspan
         sodipodi:role="line"
         id="tspan1553"
         style="fill:#0086ff;fill-opacity:1;stroke-width:0.930317"
         x="54.099236"
         y="112.80719">egeweb</tspan></text>
  </g>
</svg>
