<?xml version="1.0" encoding="UTF-8" standalone="no"?>
<!-- Created with Inkscape (http://www.inkscape.org/) -->

<svg
   width="210mm"
   height="297mm"
   viewBox="0 0 210 297"
   version="1.1"
   id="svg5"
   inkscape:version="1.2.2 (732a01da63, 2022-12-09)"
   sodipodi:docname="logo1.svg"
   xmlns:inkscape="http://www.inkscape.org/namespaces/inkscape"
   xmlns:sodipodi="http://sodipodi.sourceforge.net/DTD/sodipodi-0.dtd"
   xmlns="http://www.w3.org/2000/svg"
   xmlns:svg="http://www.w3.org/2000/svg">
  <sodipodi:namedview
     id="namedview7"
     pagecolor="#ffffff"
     bordercolor="#000000"
     borderopacity="0.25"
     inkscape:showpageshadow="2"
     inkscape:pageopacity="0.0"
     inkscape:pagecheckerboard="0"
     inkscape:deskcolor="#d1d1d1"
     inkscape:document-units="mm"
     showgrid="false"
     inkscape:zoom="0.66142459"
     inkscape:cx="403.67414"
     inkscape:cy="455.07833"
     inkscape:window-width="1366"
     inkscape:window-height="705"
     inkscape:window-x="-8"
     inkscape:window-y="-8"
     inkscape:window-maximized="1"
     inkscape:current-layer="layer1" />
  <defs
     id="defs2">
    <rect
       x="229.807"
       y="436.93568"
       width="211.66434"
       height="173.86714"
       id="rect1456" />
    <rect
       x="456.59022"
       y="193.52168"
       width="72.570631"
       height="195.03357"
       id="rect1450" />
    <rect
       x="58.963638"
       y="192.0098"
       width="237.36644"
       height="267.6042"
       id="rect1394" />
    <rect
       x="284.37165"
       y="429.76468"
       width="248.0234"
       height="237.33273"
       id="rect483" />
    <rect
       x="361.34443"
       y="74.834646"
       width="226.64207"
       height="218.08954"
       id="rect477" />
    <rect
       x="62.005849"
       y="85.525309"
       width="173.18875"
       height="205.26074"
       id="rect471" />
    <rect
       x="532.39505"
       y="594.4009"
       width="53.453318"
       height="96.215973"
       id="rect465" />
    <rect
       x="196.70821"
       y="600.8153"
       width="203.12261"
       height="222.3658"
       id="rect332" />
  </defs>
  <g
     inkscape:label="Слой 1"
     inkscape:groupmode="layer"
     id="layer1">
    <g
       aria-label="G"
       transform="matrix(1.6054568,0,0,1.579751,-543.16589,-85.450106)"
       id="text475"
       style="font-size:85.3333px;white-space:pre;shape-inside:url(#rect477)" />
    <g
       aria-label="W"
       transform="matrix(0.67972371,0,0,0.46506544,-107.83998,-129.49255)"
       id="text481"
       style="font-size:85.3333px;white-space:pre;shape-inside:url(#rect483)" />
    <path
       id="text1392"
       style="font-size:85.3333px;white-space:pre;shape-inside:url(#rect1394);fill:#ffff00;stroke:#000000;stroke-width:0.768493;stroke-linecap:round;stroke-linejoin:round;stroke-dasharray:none;stroke-opacity:1;paint-order:normal"
       d="m 121.75521,61.668357 c -8.38863,0.09905 -16.84306,1.6734 -23.909609,5.002424 -4.522201,2.113594 -8.498038,4.833775 -11.701608,7.959518 -12.444731,0 -24.889461,0 -37.334193,0 0,13.761555 0,27.523111 0,41.284661 12.419959,0 24.839918,0 37.259876,0 5.010463,4.82329 12.227678,8.43441 20.284754,10.03845 7.73978,1.56907 15.9569,1.51233 23.84547,0.60377 6.60828,-0.80531 13.02048,-2.44725 18.83724,-4.85561 0,-9.67119 0,-19.34237 0,-29.013555 -1.67864,0 -3.35727,0 -5.0359,0 2.41174,-6.169045 4.82567,-12.337645 7.23605,-18.506969 -1.46937,0 -2.93875,0 -4.40812,0 -1.80658,4.913248 -3.60997,9.827107 -5.41533,14.740588 -1.86601,-4.913602 -3.73501,-9.826617 -5.59914,-14.740588 -1.24122,0 -2.48243,0 -3.72364,0 -1.96353,4.92849 -3.93244,9.856192 -5.89643,14.784384 -1.88399,-4.929339 -3.78273,-9.855924 -5.6715,-14.784384 -1.48893,0 -2.97786,0 -4.46681,0 2.50268,6.168705 5.00245,12.338027 7.50401,18.506969 -1.58086,0 -3.1617,0 -4.74257,0 0,2.46948 0,4.938958 0,7.408435 6.33189,0 12.66377,0 18.99565,0 0,5.65145 0,11.30291 0,16.95437 -5.46858,2.10936 -11.77553,2.84836 -17.88398,2.77115 -5.44472,-0.0575 -11.00228,-0.89856 -15.73243,-2.8644 -2.94063,-1.21357 -5.552154,-2.84364 -7.638691,-4.69748 -4.154181,-3.64609 -6.330809,-8.30864 -7.053312,-12.910212 -0.802497,-5.3012 -0.387171,-10.77249 2.378755,-15.794159 3.441035,-6.280274 10.763038,-11.531563 19.805268,-13.463997 2.67603,-0.582409 5.54655,-0.910776 8.36474,-0.996561 8.86186,-0.224111 17.96748,1.0304 25.62312,4.367818 0.53866,0.234326 1.07063,0.476904 1.60601,0.715241 0,-3.02045 0,-6.040901 0,-9.061351 -7.90783,-2.754071 -16.83729,-3.531342 -25.52768,-3.448512 z m 17.05365,31.019658 c -3.35923,0 -6.71845,0 -10.07768,0 1.6832,-4.300398 3.36639,-8.600795 5.0496,-12.901195 1.67602,4.3004 3.35205,8.600797 5.02808,12.901195 z m -57.180564,-12.5028 c -2.051139,3.264264 -3.293672,6.778547 -3.835115,10.337061 -6.821459,0 -13.642919,0 -20.464379,0 0,-3.445687 0,-6.891374 0,-10.337061 8.09983,0 16.199663,0 24.299494,0 z M 77.450935,96.07719 c 0.109319,4.88382 1.278126,9.81038 4.069798,14.28286 -8.063977,0 -16.127954,0 -24.191931,0 0,-4.76095 0,-9.52191 0,-14.28286 6.707376,0 13.414755,0 20.122133,0 z"
       inkscape:export-filename="text1392.png"
       inkscape:export-xdpi="96"
       inkscape:export-ydpi="96" />
    <text
       xml:space="preserve"
       style="font-style:normal;font-variant:normal;font-weight:normal;font-stretch:normal;font-size:28.5855px;font-family:'Segoe UI Historic';-inkscape-font-specification:'Segoe UI Historic';fill:#0086ff;fill-opacity:1;stroke:#000000;stroke-width:1.14328;stroke-linecap:round;stroke-linejoin:round;stroke-dasharray:none;stroke-opacity:1;paint-order:normal"
       x="46.680099"
       y="119.08611"
       id="text1555"
       transform="scale(1.031531,0.96943281)"><tspan
         sodipodi:role="line"
         id="tspan1553"
         style="fill:#0086ff;fill-opacity:1;stroke-width:1.14328"
         x="46.680099"
         y="119.08611">egeweb</tspan></text>
  </g>
</svg>
